<svg xmlns="http://www.w3.org/2000/svg" version="1.1" xmlns:xlink="http://www.w3.org/1999/xlink" xmlns:svgjs="http://svgjs.com/svgjs" width="1920" height="1080" preserveAspectRatio="none" viewBox="0 0 1920 1080"><g mask="url(&quot;#SvgjsMask1257&quot;)" fill="none"><rect width="1920" height="1080" x="0" y="0" fill="rgba(230, 233, 254, 1)"></rect><path d="M0,955.173C179.045,960.033,235.782,697.319,379.098,589.888C507.495,493.641,717.714,503.941,791.825,361.614C865.823,219.503,790.447,46.003,741.792,-106.654C699.293,-239.996,624.92,-356.397,530.157,-459.384C437.716,-559.848,332.67,-648.721,203.19,-692.001C70.672,-736.296,-67.928,-716.318,-207.262,-705.871C-383.092,-692.688,-592.337,-745.709,-718.832,-622.871C-844.457,-500.877,-794.509,-291.049,-813.674,-116.989C-832.138,50.704,-921.227,237.307,-829.103,378.639C-736.051,521.395,-506.002,472.373,-366.097,569.659C-217.593,672.924,-180.812,950.265,0,955.173" fill="#808ffa"></path><path d="M1920 1734.763C2051.735 1725.934 2181.117 1726.028 2303.771 1677.159 2447.61 1619.8490000000002 2640.552 1577.791 2685.7039999999997 1429.685 2732.163 1277.2930000000001 2560.266 1146.671 2511.763 994.917 2473.708 875.852 2487.661 748.23 2432.112 636.252 2363.604 498.15099999999995 2303.156 322.245 2155.725 277.196 2008.442 232.192 1874.554 378.616 1726.385 420.60900000000004 1576.283 463.15 1396.984 422.225 1279.9569999999999 525.4 1160.0520000000001 631.1120000000001 1107.876 803.779 1110.481 963.609 1112.932 1114.022 1225.328 1232.022 1293.656 1366.042 1358.5610000000001 1493.348 1378.539 1658.422 1501.682 1730.915 1624.335 1803.1190000000001 1777.991 1744.28 1920 1734.763" fill="#ffffff"></path></g><defs><mask id="SvgjsMask1257"><rect width="1920" height="1080" fill="#ffffff"></rect></mask></defs></svg>